<svg id="svg" version="1.1"
  xmlns="http://www.w3.org/2000/svg"
  xmlns:xlink="http://www.w3.org/1999/xlink" width="400" height="400" viewBox="0, 0, 400,400">
  <g id="svgg">
    <path id="path0" d="M196.583 76.160 C 194.989 76.659,193.481 77.498,179.600 85.607 C 175.750 87.856,171.340 90.402,169.800 91.265 C 168.260 92.128,166.730 93.001,166.400 93.206 C 164.624 94.305,159.940 97.046,154.800 99.992 C 151.610 101.821,148.460 103.649,147.800 104.055 C 147.140 104.461,146.330 104.916,146.000 105.067 C 145.670 105.217,142.728 106.928,139.461 108.870 C 136.195 110.811,133.452 112.400,133.366 112.400 C 133.280 112.400,131.183 113.603,128.706 115.074 C 121.246 119.502,118.011 123.319,115.547 130.600 L 114.600 133.400 114.600 175.400 L 114.600 217.400 115.660 219.400 C 116.786 221.523,117.406 221.990,124.800 226.278 C 130.023 229.307,151.381 241.620,160.511 246.866 C 164.642 249.240,169.553 252.086,171.423 253.191 C 173.294 254.296,174.928 255.200,175.054 255.200 C 175.181 255.200,176.084 255.740,177.062 256.400 C 178.040 257.060,178.925 257.600,179.028 257.600 C 179.131 257.600,179.887 258.020,180.708 258.532 C 188.153 263.184,190.840 263.506,192.841 259.983 C 193.561 258.717,193.896 183.957,193.202 179.457 C 192.387 174.165,191.574 173.442,178.400 166.281 C 177.190 165.623,176.020 164.951,175.800 164.788 C 175.580 164.625,173.690 163.549,171.600 162.397 C 164.998 158.757,163.590 157.974,155.200 153.283 C 150.690 150.762,146.100 148.207,145.000 147.606 C 139.858 144.798,135.354 142.254,134.041 141.416 C 127.431 137.196,128.218 128.410,135.349 126.811 C 137.654 126.295,138.853 126.531,154.600 130.608 C 158.560 131.633,162.790 132.714,164.000 133.010 C 165.210 133.306,168.360 134.115,171.000 134.808 C 173.640 135.502,176.880 136.330,178.200 136.649 C 179.520 136.968,181.680 137.498,183.000 137.827 C 184.320 138.155,186.177 138.595,187.127 138.805 C 188.076 139.014,189.037 139.299,189.261 139.438 C 189.745 139.737,193.640 140.659,197.000 141.271 C 200.824 141.967,202.995 141.766,205.534 140.483 C 208.370 139.049,214.818 135.451,216.851 134.168 C 217.694 133.635,218.498 133.200,218.637 133.200 C 218.775 133.200,220.354 132.329,222.144 131.265 C 223.935 130.200,226.480 128.732,227.800 128.003 C 229.120 127.273,231.010 126.229,232.000 125.682 C 232.990 125.135,238.300 122.128,243.800 118.999 C 249.300 115.871,255.330 112.465,257.200 111.432 C 259.070 110.398,261.230 109.178,262.000 108.720 C 262.770 108.262,264.128 107.497,265.018 107.019 C 278.779 99.632,280.315 95.741,270.400 93.382 C 269.190 93.094,267.120 92.568,265.800 92.214 C 264.480 91.860,262.410 91.327,261.200 91.029 C 259.990 90.731,256.930 89.945,254.400 89.283 C 248.883 87.839,237.087 84.778,231.000 83.211 C 228.580 82.588,224.440 81.509,221.800 80.814 C 219.160 80.118,214.930 79.004,212.400 78.338 C 201.656 75.511,199.572 75.224,196.583 76.160 M257.200 120.465 C 254.010 122.240,251.351 123.736,251.291 123.789 C 250.956 124.083,251.789 125.163,252.721 125.644 C 254.050 126.329,259.579 129.474,260.400 130.012 C 260.730 130.228,261.270 130.527,261.600 130.677 C 261.930 130.826,263.328 131.635,264.707 132.474 C 266.086 133.313,267.360 134.000,267.537 134.000 C 268.536 134.000,269.800 136.154,269.800 137.855 C 269.800 139.793,269.370 140.305,266.466 141.819 C 265.660 142.240,263.560 143.411,261.800 144.420 C 257.874 146.673,249.445 151.421,246.200 153.207 C 244.880 153.933,239.930 156.722,235.200 159.404 C 230.470 162.086,225.700 164.780,224.600 165.392 C 223.500 166.004,220.980 167.405,219.000 168.505 C 212.828 171.937,211.467 172.953,209.793 175.384 L 208.200 177.697 208.081 217.749 C 207.952 261.178,207.905 260.182,210.155 261.572 C 212.635 263.105,213.605 262.815,221.400 258.213 C 222.940 257.304,224.470 256.427,224.800 256.264 C 225.130 256.102,225.760 255.748,226.200 255.479 C 226.640 255.210,228.259 254.272,229.798 253.395 C 231.336 252.518,232.956 251.582,233.398 251.316 C 233.839 251.049,234.470 250.698,234.800 250.536 C 235.130 250.373,236.660 249.499,238.200 248.594 C 239.740 247.689,241.270 246.818,241.600 246.658 C 241.930 246.499,242.560 246.148,243.000 245.879 C 243.440 245.610,245.059 244.672,246.598 243.795 C 248.136 242.918,249.756 241.982,250.198 241.716 C 250.639 241.449,251.270 241.098,251.600 240.936 C 251.930 240.773,253.460 239.899,255.000 238.994 C 256.540 238.089,258.070 237.218,258.400 237.058 C 258.730 236.899,259.362 236.551,259.804 236.284 C 261.164 235.466,266.909 232.147,268.600 231.203 C 269.480 230.712,272.090 229.224,274.400 227.897 C 276.710 226.570,279.326 225.075,280.214 224.576 C 283.527 222.711,285.796 220.024,286.532 217.096 C 287.489 213.284,287.553 139.644,286.603 134.679 C 285.520 129.019,284.167 127.659,274.600 122.612 C 272.180 121.335,268.925 119.595,267.366 118.745 C 263.698 116.745,263.962 116.701,257.200 120.465 " stroke="none" fill="#e48405" fill-rule="evenodd"></path>
    <path id="path1" d="M6.200 288.341 C 3.662 289.386,2.564 290.301,1.548 292.215 C 1.028 293.197,0.466 294.000,0.301 294.000 C 0.135 294.000,0.000 299.400,0.000 306.000 C 0.000 312.866,0.154 318.000,0.361 318.000 C 0.559 318.000,0.911 318.495,1.142 319.100 C 1.996 321.336,3.879 322.838,7.024 323.792 C 9.607 324.576,29.555 324.685,30.320 323.920 C 30.664 323.576,30.800 320.956,30.800 314.664 C 30.800 304.138,31.185 304.831,25.326 304.813 C 19.097 304.793,19.249 304.664,19.113 310.085 L 19.000 314.600 16.253 314.719 C 11.947 314.906,12.000 315.016,12.000 305.984 L 12.000 298.492 12.986 297.846 C 13.792 297.318,15.168 297.200,20.543 297.200 C 26.166 297.200,27.149 297.109,27.357 296.567 C 27.673 295.745,27.673 289.055,27.357 288.233 C 26.990 287.276,8.560 287.370,6.200 288.341 M37.617 288.368 C 36.971 289.574,37.050 322.842,37.700 323.730 C 38.157 324.353,39.345 324.403,51.400 324.306 L 64.600 324.200 64.714 320.058 C 64.869 314.470,65.369 314.800,56.742 314.800 L 49.583 314.800 49.120 313.784 C 48.806 313.095,48.779 312.418,49.037 311.684 L 49.417 310.600 54.608 310.400 C 61.102 310.150,60.800 310.368,60.800 305.920 C 60.800 301.195,60.845 301.229,54.514 301.213 C 49.129 301.199,48.592 300.938,48.875 298.480 L 49.000 297.400 56.370 297.291 C 65.381 297.157,64.858 297.486,64.713 292.040 L 64.600 287.800 51.317 287.695 C 38.505 287.593,38.019 287.617,37.617 288.368 M71.423 288.489 C 70.586 289.684,70.489 321.560,71.317 323.200 C 71.810 324.176,71.942 324.203,76.807 324.313 C 83.249 324.459,82.800 325.157,82.800 314.990 C 82.800 306.085,82.851 305.850,84.364 307.755 C 86.234 310.108,88.565 312.918,89.900 314.427 C 91.161 315.853,91.200 316.005,91.200 319.486 C 91.200 324.342,91.273 324.402,97.231 324.394 C 99.744 324.391,102.027 324.244,102.304 324.068 C 102.700 323.816,102.786 319.888,102.704 305.774 L 102.600 287.800 97.646 287.687 C 91.026 287.537,91.200 287.371,91.200 293.838 C 91.200 299.748,91.088 299.861,88.364 296.691 C 87.187 295.321,84.884 292.715,83.247 290.900 L 80.270 287.600 76.158 287.600 C 72.362 287.600,71.997 287.668,71.423 288.489 M110.496 305.900 L 110.600 324.200 124.000 324.200 L 137.400 324.200 137.513 319.750 C 137.649 314.377,138.384 314.813,129.180 314.805 C 121.966 314.800,121.600 314.693,121.600 312.600 C 121.600 310.589,122.093 310.401,127.380 310.394 C 133.498 310.386,133.367 310.478,133.537 306.081 C 133.726 301.202,133.724 301.200,127.420 301.200 C 121.928 301.200,121.455 300.997,121.673 298.726 L 121.800 297.400 129.600 297.178 C 133.890 297.056,137.445 296.921,137.500 296.878 C 137.555 296.835,137.600 294.730,137.600 292.200 L 137.600 287.600 123.996 287.600 L 110.392 287.600 110.496 305.900 M144.480 288.080 C 143.790 288.770,143.790 323.230,144.480 323.920 C 145.276 324.716,155.046 324.578,155.357 323.767 C 155.491 323.419,155.600 320.935,155.600 318.247 C 155.600 312.493,155.655 312.400,159.030 312.400 C 164.626 312.400,164.911 312.724,165.196 319.400 L 165.400 324.200 170.631 324.311 L 175.861 324.422 176.331 323.392 C 178.291 319.090,175.823 305.200,173.098 305.200 C 171.833 305.200,171.195 303.933,171.965 302.953 C 173.043 301.583,173.806 297.165,173.243 295.552 C 172.999 294.853,172.800 293.884,172.800 293.400 C 172.800 292.069,170.611 289.324,168.821 288.411 C 166.896 287.428,145.423 287.137,144.480 288.080 M187.892 288.383 C 182.282 290.393,181.800 291.786,181.800 306.000 C 181.800 320.244,182.007 320.911,187.200 323.353 C 189.457 324.415,211.425 324.919,212.056 323.923 C 212.238 323.635,212.391 319.489,212.394 314.709 L 212.400 306.018 211.414 305.372 C 210.626 304.856,209.592 304.754,206.274 304.863 C 200.901 305.040,200.800 305.124,200.800 309.423 C 200.800 314.438,200.576 314.800,197.472 314.800 C 193.597 314.800,193.600 314.807,193.600 306.130 C 193.600 296.814,192.989 297.469,201.940 297.200 L 208.600 297.000 208.600 292.400 L 208.600 287.800 199.200 287.750 C 191.258 287.707,189.504 287.806,187.892 288.383 M225.101 288.502 C 224.770 289.006,224.101 290.405,223.613 291.610 C 223.125 292.814,222.541 294.250,222.315 294.800 C 222.090 295.350,221.760 296.250,221.583 296.800 C 221.405 297.350,220.875 298.790,220.406 300.000 C 218.328 305.350,218.019 307.366,218.009 315.651 C 217.998 325.155,217.514 324.462,224.056 324.313 L 229.000 324.200 229.200 320.318 C 229.450 315.472,229.372 315.543,234.235 315.685 L 238.200 315.800 238.405 319.600 C 238.678 324.679,238.329 324.400,244.410 324.400 C 250.965 324.400,250.516 325.156,250.308 314.462 C 250.140 305.838,249.906 304.560,247.411 298.600 C 246.767 297.062,245.672 294.243,244.924 292.200 C 244.603 291.320,244.012 289.970,243.611 289.200 L 242.883 287.800 234.293 287.692 C 225.722 287.585,225.701 287.587,225.101 288.502 M256.814 288.374 C 255.977 289.938,256.273 322.961,257.131 323.738 C 258.048 324.567,266.721 324.719,267.520 323.920 C 267.862 323.578,268.000 321.069,268.000 315.169 C 268.000 305.753,268.326 304.556,269.955 307.988 C 271.474 311.188,272.048 311.600,274.987 311.600 C 277.854 311.600,278.339 311.230,280.011 307.776 C 281.377 304.956,281.600 305.921,281.600 314.650 C 281.600 325.155,281.135 324.400,287.600 324.400 C 292.304 324.400,292.809 324.330,293.186 323.626 C 293.453 323.128,293.600 316.852,293.600 306.000 C 293.600 295.148,293.453 288.872,293.186 288.374 C 292.808 287.667,292.301 287.600,287.330 287.600 C 280.986 287.600,281.850 287.034,278.381 293.462 C 275.034 299.665,274.925 299.660,271.532 293.149 C 268.543 287.415,268.843 287.600,262.544 287.600 C 257.698 287.600,257.192 287.668,256.814 288.374 M300.014 288.374 C 299.428 289.469,299.480 296.120,300.080 296.720 C 300.364 297.004,301.731 297.200,303.430 297.200 L 306.300 297.200 306.550 298.450 C 306.688 299.137,306.800 302.535,306.800 306.000 C 306.800 309.465,306.688 312.863,306.550 313.550 L 306.300 314.800 303.579 314.800 C 299.879 314.800,299.600 315.127,299.600 319.455 C 299.600 324.848,298.421 324.400,312.600 324.400 C 326.813 324.400,325.600 324.881,325.600 319.240 C 325.600 314.984,325.435 314.800,321.616 314.800 C 318.452 314.800,318.400 314.658,318.400 306.000 C 318.400 297.215,318.406 297.200,321.910 297.200 C 325.452 297.200,325.600 297.019,325.600 292.694 C 325.600 287.129,326.803 287.600,312.600 287.600 C 300.975 287.600,300.410 287.635,300.014 288.374 M332.267 287.867 C 331.751 288.383,331.958 323.398,332.480 323.920 C 332.798 324.238,334.528 324.400,337.618 324.400 C 343.936 324.400,343.555 324.990,343.691 315.011 C 343.805 306.710,343.989 305.949,345.400 307.948 C 346.309 309.236,348.776 312.251,350.700 314.427 C 351.938 315.827,352.000 316.051,352.000 319.130 C 352.000 324.400,352.000 324.400,357.802 324.400 C 364.667 324.400,364.000 326.387,364.000 305.930 C 364.000 285.581,364.699 287.600,357.659 287.600 C 351.762 287.600,352.000 287.313,352.000 294.426 C 352.000 299.974,351.991 299.981,349.172 296.700 C 346.290 293.346,345.359 292.304,342.977 289.760 L 340.954 287.600 336.744 287.600 C 334.428 287.600,332.413 287.720,332.267 287.867 M376.779 288.331 C 371.002 290.454,370.400 292.116,370.400 305.942 C 370.400 323.635,371.161 324.369,389.500 324.389 L 400.000 324.400 400.000 314.600 L 400.000 304.800 395.819 304.800 C 389.691 304.800,389.600 304.869,389.600 309.491 C 389.600 314.477,389.403 314.800,386.372 314.800 C 384.836 314.800,383.617 314.567,382.986 314.154 L 382.000 313.508 382.006 306.454 C 382.009 302.574,382.144 299.210,382.306 298.977 C 383.381 297.429,384.489 297.200,390.899 297.200 L 397.220 297.200 397.610 296.174 C 397.824 295.610,398.000 293.911,398.000 292.400 C 398.000 290.889,397.824 289.190,397.610 288.626 L 397.220 287.600 387.910 287.631 C 380.256 287.656,378.276 287.781,376.779 288.331 M160.826 297.214 C 161.458 297.552,161.600 298.064,161.600 300.000 C 161.600 302.849,161.059 303.303,157.888 303.120 L 155.800 303.000 155.676 300.821 C 155.454 296.899,157.526 295.448,160.826 297.214 M234.918 297.700 C 236.058 298.550,237.798 304.679,237.128 305.486 C 236.406 306.357,230.395 306.190,230.418 305.300 C 230.443 304.302,231.374 300.893,231.714 300.553 C 231.871 300.395,232.000 299.977,232.000 299.622 C 232.000 297.861,233.664 296.765,234.918 297.700 " stroke="none" fill="#3d3d45" fill-rule="evenodd"></path>
    <path id="path2" d="M0.000 147.000 C 0.000 227.850,0.135 294.000,0.301 294.000 C 0.466 294.000,1.028 293.197,1.548 292.215 C 3.665 288.225,5.843 287.601,17.657 287.600 C 28.588 287.600,27.600 287.123,27.600 292.400 C 27.600 297.594,28.180 297.200,20.543 297.200 C 15.168 297.200,13.792 297.318,12.986 297.846 L 12.000 298.492 12.000 305.984 C 12.000 315.016,11.947 314.906,16.253 314.719 L 19.000 314.600 19.113 310.085 C 19.249 304.664,19.097 304.793,25.326 304.813 C 31.185 304.831,30.800 304.138,30.800 314.664 C 30.800 320.956,30.664 323.576,30.320 323.920 C 29.555 324.685,9.607 324.576,7.024 323.792 C 3.879 322.838,1.996 321.336,1.142 319.100 C 0.094 316.358,0.000 319.655,0.000 359.000 L 0.000 400.000 200.000 400.000 L 400.000 400.000 400.000 362.200 L 400.000 324.400 389.500 324.389 C 371.161 324.369,370.400 323.635,370.400 305.942 C 370.400 288.545,371.311 287.600,388.081 287.600 L 397.220 287.600 397.610 288.626 C 398.114 289.952,398.114 294.848,397.610 296.174 L 397.220 297.200 390.899 297.200 C 384.489 297.200,383.381 297.429,382.306 298.977 C 382.144 299.210,382.009 302.574,382.006 306.454 L 382.000 313.508 382.986 314.154 C 383.617 314.567,384.836 314.800,386.372 314.800 C 389.403 314.800,389.600 314.477,389.600 309.491 C 389.600 304.869,389.691 304.800,395.819 304.800 L 400.000 304.800 400.000 152.400 L 400.000 0.000 200.000 0.000 L 0.000 0.000 0.000 147.000 M204.420 76.364 C 206.279 76.784,209.870 77.673,212.400 78.338 C 214.930 79.004,219.160 80.118,221.800 80.814 C 224.440 81.509,228.580 82.588,231.000 83.211 C 237.087 84.778,248.883 87.839,254.400 89.283 C 256.930 89.945,259.990 90.731,261.200 91.029 C 262.410 91.327,264.480 91.860,265.800 92.214 C 267.120 92.568,269.190 93.094,270.400 93.382 C 280.315 95.741,278.779 99.632,265.018 107.019 C 264.128 107.497,262.770 108.262,262.000 108.720 C 261.230 109.178,259.070 110.398,257.200 111.432 C 255.330 112.465,249.300 115.871,243.800 118.999 C 238.300 122.128,232.990 125.135,232.000 125.682 C 231.010 126.229,229.120 127.273,227.800 128.003 C 226.480 128.732,223.935 130.200,222.144 131.265 C 220.354 132.329,218.775 133.200,218.637 133.200 C 218.498 133.200,217.694 133.635,216.851 134.168 C 214.818 135.451,208.370 139.049,205.534 140.483 C 202.995 141.766,200.824 141.967,197.000 141.271 C 193.640 140.659,189.745 139.737,189.261 139.438 C 189.037 139.299,188.076 139.014,187.127 138.805 C 186.177 138.595,184.320 138.155,183.000 137.827 C 181.680 137.498,179.520 136.968,178.200 136.649 C 176.880 136.330,173.640 135.502,171.000 134.808 C 168.360 134.115,165.210 133.306,164.000 133.010 C 162.790 132.714,158.560 131.633,154.600 130.608 C 138.853 126.531,137.654 126.295,135.349 126.811 C 128.218 128.410,127.431 137.196,134.041 141.416 C 135.354 142.254,139.858 144.798,145.000 147.606 C 146.100 148.207,150.690 150.762,155.200 153.283 C 163.590 157.974,164.998 158.757,171.600 162.397 C 173.690 163.549,175.580 164.625,175.800 164.788 C 176.020 164.951,177.190 165.623,178.400 166.281 C 191.574 173.442,192.387 174.165,193.202 179.457 C 193.896 183.957,193.561 258.717,192.841 259.983 C 190.840 263.506,188.153 263.184,180.708 258.532 C 179.887 258.020,179.131 257.600,179.028 257.600 C 178.925 257.600,178.040 257.060,177.062 256.400 C 176.084 255.740,175.181 255.200,175.054 255.200 C 174.928 255.200,173.294 254.296,171.423 253.191 C 169.553 252.086,164.642 249.240,160.511 246.866 C 151.381 241.620,130.023 229.307,124.800 226.278 C 117.406 221.990,116.786 221.523,115.660 219.400 L 114.600 217.400 114.600 175.400 L 114.600 133.400 115.547 130.600 C 118.011 123.319,121.246 119.502,128.706 115.074 C 131.183 113.603,133.280 112.400,133.366 112.400 C 133.452 112.400,136.195 110.811,139.461 108.870 C 142.728 106.928,145.670 105.217,146.000 105.067 C 146.330 104.916,147.140 104.461,147.800 104.055 C 148.460 103.649,151.610 101.821,154.800 99.992 C 159.940 97.046,164.624 94.305,166.400 93.206 C 166.730 93.001,168.260 92.128,169.800 91.265 C 171.340 90.402,175.750 87.856,179.600 85.607 C 198.819 74.380,197.619 74.827,204.420 76.364 M267.366 118.745 C 268.925 119.595,272.180 121.335,274.600 122.612 C 284.167 127.659,285.520 129.019,286.603 134.679 C 287.553 139.644,287.489 213.284,286.532 217.096 C 285.796 220.024,283.527 222.711,280.214 224.576 C 279.326 225.075,276.710 226.570,274.400 227.897 C 272.090 229.224,269.480 230.712,268.600 231.203 C 266.909 232.147,261.164 235.466,259.804 236.284 C 259.362 236.551,258.730 236.899,258.400 237.058 C 258.070 237.218,256.540 238.089,255.000 238.994 C 253.460 239.899,251.930 240.773,251.600 240.936 C 251.270 241.098,250.639 241.449,250.198 241.716 C 249.756 241.982,248.136 242.918,246.598 243.795 C 245.059 244.672,243.440 245.610,243.000 245.879 C 242.560 246.148,241.930 246.499,241.600 246.658 C 241.270 246.818,239.740 247.689,238.200 248.594 C 236.660 249.499,235.130 250.373,234.800 250.536 C 234.470 250.698,233.839 251.049,233.398 251.316 C 232.956 251.582,231.336 252.518,229.798 253.395 C 228.259 254.272,226.640 255.210,226.200 255.479 C 225.760 255.748,225.130 256.102,224.800 256.264 C 224.470 256.427,222.940 257.304,221.400 258.213 C 213.605 262.815,212.635 263.105,210.155 261.572 C 207.905 260.182,207.952 261.178,208.081 217.749 L 208.200 177.697 209.793 175.384 C 211.467 172.953,212.828 171.937,219.000 168.505 C 220.980 167.405,223.500 166.004,224.600 165.392 C 225.700 164.780,230.470 162.086,235.200 159.404 C 239.930 156.722,244.880 153.933,246.200 153.207 C 249.445 151.421,257.874 146.673,261.800 144.420 C 263.560 143.411,265.660 142.240,266.466 141.819 C 269.370 140.305,269.800 139.793,269.800 137.855 C 269.800 136.154,268.536 134.000,267.537 134.000 C 267.360 134.000,266.086 133.313,264.707 132.474 C 263.328 131.635,261.930 130.826,261.600 130.677 C 261.270 130.527,260.730 130.228,260.400 130.012 C 259.579 129.474,254.050 126.329,252.721 125.644 C 251.789 125.163,250.956 124.083,251.291 123.789 C 252.090 123.086,263.205 117.231,263.766 117.218 C 264.187 117.208,265.807 117.895,267.366 118.745 M64.713 292.040 C 64.858 297.486,65.381 297.157,56.370 297.291 L 49.000 297.400 48.875 298.480 C 48.592 300.938,49.129 301.199,54.514 301.213 C 60.845 301.229,60.800 301.195,60.800 305.920 C 60.800 310.368,61.102 310.150,54.608 310.400 L 49.417 310.600 49.037 311.684 C 48.779 312.418,48.806 313.095,49.120 313.784 L 49.583 314.800 56.742 314.800 C 65.369 314.800,64.869 314.470,64.714 320.058 L 64.600 324.200 51.400 324.306 C 39.345 324.403,38.157 324.353,37.700 323.730 C 37.050 322.842,36.971 289.574,37.617 288.368 C 38.019 287.617,38.505 287.593,51.317 287.695 L 64.600 287.800 64.713 292.040 M83.247 290.900 C 84.884 292.715,87.187 295.321,88.364 296.691 C 91.088 299.861,91.200 299.748,91.200 293.838 C 91.200 287.371,91.026 287.537,97.646 287.687 L 102.600 287.800 102.704 305.774 C 102.786 319.888,102.700 323.816,102.304 324.068 C 102.027 324.244,99.744 324.391,97.231 324.394 C 91.273 324.402,91.200 324.342,91.200 319.486 C 91.200 316.005,91.161 315.853,89.900 314.427 C 88.565 312.918,86.234 310.108,84.364 307.755 C 82.851 305.850,82.800 306.085,82.800 314.990 C 82.800 325.157,83.249 324.459,76.807 324.313 C 70.214 324.164,70.813 326.014,70.806 305.789 C 70.799 285.941,70.311 287.600,76.158 287.600 L 80.270 287.600 83.247 290.900 M137.600 292.200 C 137.600 294.730,137.555 296.835,137.500 296.878 C 137.445 296.921,133.890 297.056,129.600 297.178 L 121.800 297.400 121.673 298.726 C 121.455 300.997,121.928 301.200,127.420 301.200 C 133.724 301.200,133.726 301.202,133.537 306.081 C 133.367 310.478,133.498 310.386,127.380 310.394 C 122.093 310.401,121.600 310.589,121.600 312.600 C 121.600 314.693,121.966 314.800,129.180 314.805 C 138.384 314.813,137.649 314.377,137.513 319.750 L 137.400 324.200 124.000 324.200 L 110.600 324.200 110.496 305.900 L 110.392 287.600 123.996 287.600 L 137.600 287.600 137.600 292.200 M168.821 288.411 C 170.611 289.324,172.800 292.069,172.800 293.400 C 172.800 293.884,172.999 294.853,173.243 295.552 C 173.806 297.165,173.043 301.583,171.965 302.953 C 171.195 303.933,171.833 305.200,173.098 305.200 C 175.823 305.200,178.291 319.090,176.331 323.392 L 175.861 324.422 170.631 324.311 L 165.400 324.200 165.196 319.400 C 164.911 312.724,164.626 312.400,159.030 312.400 C 155.655 312.400,155.600 312.493,155.600 318.247 C 155.600 320.935,155.491 323.419,155.357 323.767 C 155.046 324.578,145.276 324.716,144.480 323.920 C 143.790 323.230,143.790 288.770,144.480 288.080 C 145.423 287.137,166.896 287.428,168.821 288.411 M208.600 292.400 L 208.600 297.000 201.940 297.200 C 192.989 297.469,193.600 296.814,193.600 306.130 C 193.600 314.807,193.597 314.800,197.472 314.800 C 200.576 314.800,200.800 314.438,200.800 309.423 C 200.800 305.124,200.901 305.040,206.274 304.863 C 209.592 304.754,210.626 304.856,211.414 305.372 L 212.400 306.018 212.394 314.709 C 212.391 319.489,212.238 323.635,212.056 323.923 C 211.425 324.919,189.457 324.415,187.200 323.353 C 182.007 320.911,181.800 320.244,181.800 306.000 C 181.800 292.874,181.800 292.873,184.692 290.242 C 187.195 287.966,188.777 287.694,199.200 287.750 L 208.600 287.800 208.600 292.400 M243.611 289.200 C 244.012 289.970,244.603 291.320,244.924 292.200 C 245.672 294.243,246.767 297.062,247.411 298.600 C 249.906 304.560,250.140 305.838,250.308 314.462 C 250.516 325.156,250.965 324.400,244.410 324.400 C 238.329 324.400,238.678 324.679,238.405 319.600 L 238.200 315.800 234.235 315.685 C 229.372 315.543,229.450 315.472,229.200 320.318 L 229.000 324.200 224.056 324.313 C 217.514 324.462,217.998 325.155,218.009 315.651 C 218.019 307.366,218.328 305.350,220.406 300.000 C 220.875 298.790,221.405 297.350,221.583 296.800 C 221.760 296.250,222.090 295.350,222.315 294.800 C 222.541 294.250,223.125 292.814,223.613 291.610 C 225.385 287.235,224.473 287.569,234.293 287.692 L 242.883 287.800 243.611 289.200 M268.735 288.531 C 269.216 289.043,270.474 291.121,271.532 293.149 C 274.925 299.660,275.034 299.665,278.381 293.462 C 281.850 287.034,280.986 287.600,287.330 287.600 C 292.301 287.600,292.808 287.667,293.186 288.374 C 293.453 288.872,293.600 295.148,293.600 306.000 C 293.600 316.852,293.453 323.128,293.186 323.626 C 292.809 324.330,292.304 324.400,287.600 324.400 C 281.135 324.400,281.600 325.155,281.600 314.650 C 281.600 305.921,281.377 304.956,280.011 307.776 C 277.331 313.313,272.531 313.414,269.955 307.988 C 268.326 304.556,268.000 305.753,268.000 315.169 C 268.000 321.069,267.862 323.578,267.520 323.920 C 266.721 324.719,258.048 324.567,257.131 323.738 C 256.273 322.961,255.977 289.938,256.814 288.374 C 257.507 287.079,267.495 287.210,268.735 288.531 M325.186 288.374 C 325.772 289.469,325.720 296.120,325.120 296.720 C 324.840 297.000,323.500 297.200,321.910 297.200 C 318.406 297.200,318.400 297.215,318.400 306.000 C 318.400 314.658,318.452 314.800,321.616 314.800 C 325.435 314.800,325.600 314.984,325.600 319.240 C 325.600 324.881,326.813 324.400,312.600 324.400 C 298.421 324.400,299.600 324.848,299.600 319.455 C 299.600 315.127,299.879 314.800,303.579 314.800 L 306.300 314.800 306.550 313.550 C 306.688 312.863,306.800 309.465,306.800 306.000 C 306.800 302.535,306.688 299.137,306.550 298.450 L 306.300 297.200 303.430 297.200 C 299.731 297.200,299.600 297.045,299.600 292.694 C 299.600 287.129,298.397 287.600,312.600 287.600 C 324.225 287.600,324.790 287.635,325.186 288.374 M342.977 289.760 C 345.359 292.304,346.290 293.346,349.172 296.700 C 351.991 299.981,352.000 299.974,352.000 294.426 C 352.000 287.313,351.762 287.600,357.659 287.600 C 364.699 287.600,364.000 285.581,364.000 305.930 C 364.000 326.387,364.667 324.400,357.802 324.400 C 352.000 324.400,352.000 324.400,352.000 319.130 C 352.000 316.051,351.938 315.827,350.700 314.427 C 348.776 312.251,346.309 309.236,345.400 307.948 C 343.989 305.949,343.805 306.710,343.691 315.011 C 343.555 324.990,343.936 324.400,337.618 324.400 C 334.528 324.400,332.798 324.238,332.480 323.920 C 331.958 323.398,331.751 288.383,332.267 287.867 C 332.413 287.720,334.428 287.600,336.744 287.600 L 340.954 287.600 342.977 289.760 M155.784 297.721 C 155.657 298.228,155.608 299.623,155.676 300.821 L 155.800 303.000 157.888 303.120 C 161.059 303.303,161.600 302.849,161.600 300.000 C 161.600 297.198,161.156 296.800,158.034 296.800 C 156.260 296.800,155.987 296.912,155.784 297.721 M232.623 298.089 C 232.280 298.578,232.000 299.268,232.000 299.622 C 232.000 299.977,231.871 300.395,231.714 300.553 C 231.374 300.893,230.443 304.302,230.418 305.300 C 230.402 305.909,230.810 306.000,233.551 306.000 C 237.958 306.000,238.020 305.866,236.223 300.200 C 235.288 297.255,233.813 296.390,232.623 298.089 " stroke="none" fill="#ffffff00" fill-rule="evenodd"></path>
  </g>
</svg>